<svg height="542" width="720" xmlns="http://www.w3.org/2000/svg">
<rect height="542" fill="#555" width="720"></rect>
<text fill="#7f7" font-family="Courier New" font-size="12" xml:space="preserve">
<tspan x="10" y="26">8 megabytes installed</tspan>
<tspan x="10" y="42"></tspan>
<tspan x="10" y="58">node_modules</tspan>
<tspan x="10" y="74">└─┬ tchannel@3.9.11 </tspan>
<tspan x="10" y="90">  ├─┬ bufrw@1.2.1 </tspan>
<tspan x="10" y="106">  │ └── ansi-color@0.2.1 </tspan>
<tspan x="10" y="122">  ├── crc@3.2.1 </tspan>
<tspan x="10" y="138">  ├─┬ error@7.0.2 </tspan>
<tspan x="10" y="154">  │ └── string-template@0.2.1 </tspan>
<tspan x="10" y="170">  ├─┬ farmhash@1.1.0 </tspan>
<tspan x="10" y="186">  │ └── nan@2.6.2 </tspan>
<tspan x="10" y="202">  ├── json-stringify-safe@5.0.1 </tspan>
<tspan x="10" y="218">  ├── metrics@0.1.11 </tspan>
<tspan x="10" y="234">  ├── minimist@1.2.0 </tspan>
<tspan x="10" y="250">  ├── process@0.11.1 </tspan>
<tspan x="10" y="266">  ├─┬ raw-body@2.2.0 </tspan>
<tspan x="10" y="282">  │ ├── bytes@2.4.0 </tspan>
<tspan x="10" y="298">  │ ├── iconv-lite@0.4.15 </tspan>
<tspan x="10" y="314">  │ └── unpipe@1.0.0 </tspan>
<tspan x="10" y="330">  ├── ready-signal@1.3.0 </tspan>
<tspan x="10" y="346">  ├── run-parallel@1.1.6 </tspan>
<tspan x="10" y="362">  ├── run-series@1.1.4 </tspan>
<tspan x="10" y="378">  ├─┬ safe-json-parse@4.0.0 </tspan>
<tspan x="10" y="394">  │ └─┬ rust-result@1.0.0 </tspan>
<tspan x="10" y="410">  │   └── individual@2.0.0 </tspan>
<tspan x="10" y="426">  ├─┬ sse4_crc32@4.1.1 </tspan>
<tspan x="10" y="442">  │ └── bindings@1.2.1 </tspan>
<tspan x="10" y="458">  ├── tape-cluster@2.1.0 </tspan>
<tspan x="10" y="474">  ├─┬ thriftrw@3.11.0 </tspan>
<tspan x="10" y="490">  │ └── long@2.4.0 </tspan>
<tspan x="10" y="506">  ├── xorshift@0.2.1 </tspan>
<tspan x="10" y="522">  └── xtend@4.0.1</tspan>
</text>
</svg>
